<svg width="281" height="282" viewBox="0 0 281 282" fill="none" xmlns="http://www.w3.org/2000/svg">
<path fill-rule="evenodd" clip-rule="evenodd" d="M141 0C209.638 0 266.821 49.0439 279.418 114H202.824C192.412 90.1909 168.649 73.5541 141 73.5541C111.59 73.5541 86.5766 92.378 77.3507 118.635L22.8043 64.0884C47.9628 25.5044 91.503 0 141 0ZM11.7345 84.5953C4.18699 101.868 0 120.945 0 141C0 218.872 63.1278 282 141 282C211.04 282 269.152 230.932 280.133 164H204.423C195.019 189.925 170.172 208.446 141 208.446C105.653 208.446 76.6563 181.254 73.7872 146.648L11.7345 84.5953Z" fill="#1C205F"/>
</svg>
